<svg width="250" height="180" viewBox="0 0 250 180" fill="none" xmlns="http://www.w3.org/2000/svg">
<g clip-path="url(#clip0)">
<path d="M244.165 179.516H94.1676C92.6205 179.514 91.1374 178.899 90.0434 177.805C88.9495 176.711 88.3342 175.228 88.3324 173.681V5.83513C88.3342 4.2881 88.9495 2.80492 90.0434 1.71099C91.1374 0.617072 92.6205 0.00174157 94.1676 0H244.165C245.712 0.00174157 247.195 0.617072 248.289 1.71099C249.383 2.80492 249.998 4.2881 250 5.83513V173.681C249.998 175.228 249.383 176.711 248.289 177.805C247.195 178.899 245.712 179.514 244.165 179.516ZM94.1676 0.686486C92.8025 0.688031 91.4939 1.23097 90.5286 2.19619C89.5634 3.16142 89.0205 4.4701 89.0189 5.83513V173.681C89.0205 175.046 89.5634 176.355 90.5286 177.32C91.4939 178.285 92.8025 178.828 94.1676 178.83H244.165C245.53 178.828 246.839 178.285 247.804 177.32C248.769 176.355 249.312 175.046 249.314 173.681V5.83513C249.312 4.4701 248.769 3.16142 247.804 2.19619C246.839 1.23097 245.53 0.688031 244.165 0.686486H94.1676Z" fill="#3F3D56"/>
<path d="M249.657 14.2756H88.6757V14.9621H249.657V14.2756Z" fill="#3F3D56"/>
<path d="M96.5703 10.2973C98.0868 10.2973 99.3162 9.06788 99.3162 7.55134C99.3162 6.03479 98.0868 4.80539 96.5703 4.80539C95.0537 4.80539 93.8243 6.03479 93.8243 7.55134C93.8243 9.06788 95.0537 10.2973 96.5703 10.2973Z" fill="#EA9210"/>
<path d="M105.151 10.2973C106.668 10.2973 107.897 9.06788 107.897 7.55134C107.897 6.03479 106.668 4.80539 105.151 4.80539C103.635 4.80539 102.405 6.03479 102.405 7.55134C102.405 9.06788 103.635 10.2973 105.151 10.2973Z" fill="#EA9210"/>
<path d="M113.732 10.2973C115.249 10.2973 116.478 9.06788 116.478 7.55134C116.478 6.03479 115.249 4.80539 113.732 4.80539C112.216 4.80539 110.986 6.03479 110.986 7.55134C110.986 9.06788 112.216 10.2973 113.732 10.2973Z" fill="#EA9210"/>
<path d="M222.712 39.473H115.62C114.437 39.473 113.302 39.0028 112.465 38.166C111.628 37.3292 111.158 36.1942 111.158 35.0108C111.158 33.8274 111.628 32.6924 112.465 31.8556C113.302 31.0188 114.437 30.5486 115.62 30.5486H222.712C223.896 30.5486 225.031 31.0188 225.867 31.8556C226.704 32.6924 227.174 33.8274 227.174 35.0108C227.174 36.1942 226.704 37.3292 225.867 38.166C225.031 39.0028 223.896 39.473 222.712 39.473ZM115.62 31.2351C114.619 31.2351 113.659 31.6329 112.95 32.341C112.242 33.0491 111.845 34.0094 111.845 35.0108C111.845 36.0122 112.242 36.9725 112.95 37.6806C113.659 38.3887 114.619 38.7865 115.62 38.7865H222.712C223.714 38.7865 224.674 38.3887 225.382 37.6806C226.09 36.9725 226.488 36.0122 226.488 35.0108C226.488 34.0094 226.09 33.0491 225.382 32.341C224.674 31.6329 223.714 31.2351 222.712 31.2351H115.62Z" fill="#3F3D56"/>
<path d="M196.232 74.6865H147.492C146.764 74.6865 146.065 74.3972 145.55 73.8822C145.035 73.3673 144.746 72.6688 144.746 71.9405C144.746 71.2123 145.035 70.5138 145.55 69.9989C146.065 69.4839 146.764 69.1946 147.492 69.1946H196.232C196.961 69.1946 197.659 69.4839 198.174 69.9989C198.689 70.5138 198.978 71.2123 198.978 71.9405C198.978 72.6688 198.689 73.3673 198.174 73.8822C197.659 74.3972 196.961 74.6865 196.232 74.6865Z" fill="#CCCCCC"/>
<path d="M224.378 83.9541H147.492C146.764 83.9541 146.065 83.6648 145.55 83.1498C145.035 82.6348 144.746 81.9364 144.746 81.2081C144.746 80.4798 145.035 79.7814 145.55 79.2664C146.065 78.7515 146.764 78.4622 147.492 78.4622H224.378C225.107 78.4622 225.805 78.7515 226.32 79.2664C226.835 79.7814 227.124 80.4798 227.124 81.2081C227.124 81.9364 226.835 82.6348 226.32 83.1498C225.805 83.6648 225.107 83.9541 224.378 83.9541Z" fill="#CCCCCC"/>
<path d="M129.228 84.4689H114.469C113.604 84.4679 112.776 84.1241 112.164 83.5128C111.553 82.9015 111.209 82.0726 111.208 81.2081V71.9405C111.209 71.076 111.553 70.2472 112.164 69.6359C112.776 69.0246 113.604 68.6807 114.469 68.6797H129.228C130.093 68.6807 130.922 69.0246 131.533 69.6359C132.144 70.2472 132.488 71.076 132.489 71.9405V81.2081C132.488 82.0726 132.144 82.9015 131.533 83.5128C130.922 84.1241 130.093 84.4679 129.228 84.4689ZM114.469 69.3662C113.786 69.367 113.132 69.6384 112.649 70.1211C112.167 70.6037 111.895 71.258 111.895 71.9405V81.2081C111.895 81.8906 112.167 82.545 112.649 83.0276C113.132 83.5102 113.786 83.7817 114.469 83.7824H129.228C129.911 83.7817 130.565 83.5102 131.048 83.0276C131.53 82.545 131.802 81.8906 131.803 81.2081V71.9405C131.802 71.258 131.53 70.6037 131.048 70.1211C130.565 69.6384 129.911 69.367 129.228 69.3662H114.469Z" fill="#CCCCCC"/>
<path d="M196.232 107.295H147.492C146.764 107.295 146.065 107.005 145.55 106.49C145.035 105.975 144.746 105.277 144.746 104.549C144.746 103.82 145.035 103.122 145.55 102.607C146.065 102.092 146.764 101.803 147.492 101.803H196.232C196.961 101.803 197.659 102.092 198.174 102.607C198.689 103.122 198.978 103.82 198.978 104.549C198.978 105.277 198.689 105.975 198.174 106.49C197.659 107.005 196.961 107.295 196.232 107.295Z" fill="#CCCCCC"/>
<path d="M224.378 116.562H147.492C146.764 116.562 146.065 116.273 145.55 115.758C145.035 115.243 144.746 114.544 144.746 113.816C144.746 113.088 145.035 112.39 145.55 111.875C146.065 111.36 146.764 111.07 147.492 111.07H224.378C225.107 111.07 225.805 111.36 226.32 111.875C226.835 112.39 227.124 113.088 227.124 113.816C227.124 114.544 226.835 115.243 226.32 115.758C225.805 116.273 225.107 116.562 224.378 116.562Z" fill="#CCCCCC"/>
<path d="M129.228 117.077H114.469C113.604 117.076 112.776 116.732 112.164 116.121C111.553 115.51 111.209 114.681 111.208 113.816V104.549C111.209 103.684 111.553 102.855 112.164 102.244C112.776 101.633 113.604 101.289 114.469 101.288H129.228C130.093 101.289 130.922 101.633 131.533 102.244C132.144 102.855 132.488 103.684 132.489 104.549V113.816C132.488 114.681 132.144 115.51 131.533 116.121C130.922 116.732 130.093 117.076 129.228 117.077ZM114.469 101.974C113.786 101.975 113.132 102.247 112.649 102.729C112.167 103.212 111.895 103.866 111.895 104.549V113.816C111.895 114.499 112.167 115.153 112.649 115.636C113.132 116.118 113.786 116.39 114.469 116.391H129.228C129.911 116.39 130.565 116.118 131.048 115.636C131.53 115.153 131.802 114.499 131.803 113.816V104.549C131.802 103.866 131.53 103.212 131.048 102.729C130.565 102.247 129.911 101.975 129.228 101.974H114.469Z" fill="#CCCCCC"/>
<path d="M196.232 139.903H147.492C146.764 139.903 146.065 139.613 145.55 139.098C145.035 138.583 144.746 137.885 144.746 137.157C144.746 136.429 145.035 135.73 145.55 135.215C146.065 134.7 146.764 134.411 147.492 134.411H196.232C196.961 134.411 197.659 134.7 198.174 135.215C198.689 135.73 198.978 136.429 198.978 137.157C198.978 137.885 198.689 138.583 198.174 139.098C197.659 139.613 196.961 139.903 196.232 139.903Z" fill="#F2F2F2"/>
<path d="M224.378 149.17H147.492C146.764 149.17 146.065 148.881 145.55 148.366C145.035 147.851 144.746 147.153 144.746 146.424C144.746 145.696 145.035 144.998 145.55 144.483C146.065 143.968 146.764 143.678 147.492 143.678H224.378C225.107 143.678 225.805 143.968 226.32 144.483C226.835 144.998 227.124 145.696 227.124 146.424C227.124 147.153 226.835 147.851 226.32 148.366C225.805 148.881 225.107 149.17 224.378 149.17Z" fill="#F2F2F2"/>
<path d="M129.228 149.685H114.469C113.604 149.684 112.776 149.34 112.164 148.729C111.553 148.118 111.209 147.289 111.208 146.424V137.157C111.209 136.292 111.553 135.463 112.164 134.852C112.776 134.241 113.604 133.897 114.469 133.896H129.228C130.093 133.897 130.922 134.241 131.533 134.852C132.144 135.463 132.488 136.292 132.489 137.157V146.424C132.488 147.289 132.144 148.118 131.533 148.729C130.922 149.34 130.093 149.684 129.228 149.685Z" fill="#F2F2F2"/>
<path d="M121.849 81.6332L121.054 80.9162C118.232 78.3249 116.368 76.6431 116.368 74.548C116.361 74.1494 116.434 73.7534 116.583 73.3835C116.732 73.0137 116.953 72.6774 117.234 72.3946C117.515 72.1119 117.85 71.8884 118.219 71.7374C118.588 71.5864 118.984 71.5109 119.382 71.5155C119.853 71.518 120.317 71.6229 120.743 71.8228C121.169 72.0228 121.546 72.313 121.849 72.6734C122.151 72.313 122.528 72.0227 122.954 71.8228C123.38 71.6228 123.844 71.518 124.315 71.5155C124.713 71.5109 125.109 71.5864 125.478 71.7374C125.847 71.8884 126.182 72.1119 126.463 72.3946C126.744 72.6774 126.965 73.0137 127.114 73.3835C127.263 73.7534 127.336 74.1494 127.329 74.548C127.329 76.6431 125.466 78.325 122.643 80.9162L121.849 81.6332Z" fill="#EA9210"/>
<path d="M121.849 114.241L121.054 113.524C118.232 110.933 116.368 109.251 116.368 107.156C116.361 106.758 116.434 106.362 116.583 105.992C116.732 105.622 116.953 105.286 117.234 105.003C117.515 104.72 117.85 104.496 118.219 104.345C118.588 104.194 118.984 104.119 119.382 104.124C119.853 104.126 120.317 104.231 120.743 104.431C121.169 104.631 121.546 104.921 121.849 105.282C122.151 104.921 122.528 104.631 122.954 104.431C123.38 104.231 123.844 104.126 124.315 104.124C124.713 104.119 125.109 104.194 125.478 104.345C125.847 104.496 126.182 104.72 126.463 105.003C126.744 105.286 126.965 105.622 127.114 105.992C127.263 106.362 127.336 106.758 127.329 107.156C127.329 109.251 125.466 110.933 122.643 113.524L121.849 114.241Z" fill="#EA9210"/>
<path d="M59.4946 108.756H44.7351C43.8706 108.755 43.0418 108.411 42.4305 107.8C41.8192 107.188 41.4753 106.359 41.4743 105.495V96.2274C41.4753 95.3629 41.8192 94.534 42.4305 93.9227C43.0418 93.3114 43.8706 92.9676 44.7351 92.9666H59.4946C60.3591 92.9676 61.188 93.3114 61.7993 93.9227C62.4106 94.534 62.7544 95.3629 62.7554 96.2274V105.495C62.7544 106.359 62.4106 107.188 61.7993 107.8C61.188 108.411 60.3591 108.755 59.4946 108.756ZM44.7351 93.6531C44.0526 93.6538 43.3983 93.9253 42.9157 94.4079C42.433 94.8905 42.1616 95.5449 42.1608 96.2274V105.495C42.1616 106.177 42.433 106.832 42.9157 107.314C43.3983 107.797 44.0526 108.069 44.7351 108.069H59.4946C60.1771 108.069 60.8315 107.797 61.3141 107.314C61.7967 106.832 62.0682 106.177 62.0689 105.495V96.2274C62.0682 95.5449 61.7967 94.8905 61.3141 94.4079C60.8315 93.9253 60.1771 93.6538 59.4946 93.6531H44.7351Z" fill="#3F3D56"/>
<path d="M52.1149 105.92L51.3201 105.203C48.4977 102.612 46.6345 100.93 46.6345 98.8348C46.6275 98.4362 46.7005 98.0403 46.8493 97.6704C46.9981 97.3005 47.2195 96.9642 47.5006 96.6815C47.7816 96.3987 48.1166 96.1752 48.4855 96.0242C48.8545 95.8732 49.25 95.7977 49.6487 95.8023C50.1191 95.8048 50.5834 95.9097 51.0093 96.1096C51.4352 96.3096 51.8124 96.5999 52.1149 96.9602C52.4173 96.5998 52.7946 96.3096 53.2204 96.1096C53.6463 95.9097 54.1106 95.8048 54.5811 95.8023C54.9797 95.7977 55.3752 95.8732 55.7442 96.0242C56.1132 96.1752 56.4481 96.3987 56.7292 96.6815C57.0102 96.9642 57.2317 97.3005 57.3804 97.6704C57.5292 98.0403 57.6023 98.4362 57.5953 98.8348C57.5953 100.93 55.732 102.612 52.9096 105.203L52.1149 105.92Z" fill="#EA9210"/>
<path d="M43.5799 175.777L47.3974 174.869L45.7114 159.712L40.0771 161.052L43.5799 175.777Z" fill="#FFB8B8"/>
<path d="M55.6028 176.662L43.605 179.516L42.5023 174.881L49.8646 173.129C50.4733 172.985 51.1047 172.961 51.7225 173.06C52.3403 173.159 52.9325 173.379 53.4654 173.707C53.9982 174.035 54.4612 174.465 54.828 174.972C55.1947 175.479 55.458 176.053 55.6028 176.662Z" fill="#2F2E41"/>
<path d="M39.8327 166.017L31.5416 137.601L41.9024 135.031L47.9805 165.126C48.0251 165.346 48.0209 165.574 47.9684 165.792C47.9159 166.011 47.8162 166.216 47.6764 166.392C47.5366 166.568 47.36 166.712 47.1589 166.812C46.9579 166.913 46.7373 166.969 46.5124 166.976L41.3614 167.129C41.3459 167.129 41.3304 167.129 41.315 167.129C40.9809 167.129 40.6559 167.021 40.3886 166.82C40.1213 166.62 39.9263 166.338 39.8327 166.017Z" fill="#2F2E41"/>
<path d="M19.939 175.872L23.863 175.872L25.7292 160.736L19.9376 160.737L19.939 175.872Z" fill="#FFB8B8"/>
<path d="M31.4312 179.515L19.0985 179.516L19.0981 174.751L26.6658 174.751C27.9296 174.751 29.1416 175.252 30.0352 176.146C30.9289 177.039 31.431 178.251 31.4312 179.515Z" fill="#2F2E41"/>
<path d="M19.25 169.992C19.1058 169.852 18.9907 169.685 18.9115 169.501C18.8323 169.316 18.7905 169.118 18.7885 168.917L15.2134 140.571C15.212 140.162 15.3725 139.769 15.6598 139.478C15.9471 139.187 16.338 139.022 16.7468 139.018L24.7266 138.96H24.738C25.1432 138.962 25.5319 139.121 25.8206 139.406C26.1093 139.69 26.275 140.076 26.2823 140.481L26.7065 168.406C26.7128 168.813 26.5577 169.207 26.2751 169.5C25.9924 169.794 25.6051 169.964 25.1977 169.973L20.3535 170.433C20.3461 170.434 20.3386 170.434 20.3312 170.434C19.9266 170.435 19.5379 170.276 19.25 169.992Z" fill="#2F2E41"/>
<path d="M20.96 76.1687C25.616 76.1687 29.3904 72.3943 29.3904 67.7383C29.3904 63.0823 25.616 59.3079 20.96 59.3079C16.3041 59.3079 12.5296 63.0823 12.5296 67.7383C12.5296 72.3943 16.3041 76.1687 20.96 76.1687Z" fill="#FFB8B8"/>
<path d="M9.85371 139.09C4.36853 134.804 4.42659 129.804 6.29825 123.126C6.82551 121.244 7.3946 119.338 7.99703 117.319C10.7962 107.94 13.9688 97.3093 12.7643 88.5317L12.9343 88.5084L12.7643 88.5317C12.4344 86.1277 13.2753 83.599 15.0713 81.5941C16.8674 79.589 19.2848 78.478 21.7149 78.5406C24.1408 78.6053 26.4997 79.8454 28.1865 81.9431C29.8652 84.0305 30.6664 91.3705 30.9039 92.4226C31.9942 97.2509 32.6523 100.165 33.1243 104.815C33.6825 110.311 40.3676 126.745 42.4978 129.501C43.0632 130.228 43.468 131.067 43.6855 131.962C43.903 132.858 43.9284 133.789 43.7599 134.695C43.6029 135.557 43.2625 136.374 42.7617 137.093C42.261 137.812 41.6116 138.414 40.8576 138.86C37.4005 140.973 33.6017 142.468 29.6315 143.278C27.9093 143.612 26.1592 143.78 24.4049 143.781C18.9621 143.781 13.7615 142.143 9.85371 139.09Z" fill="#EA9210"/>
<path d="M44.9117 107.329C44.6934 106.912 44.3863 106.548 44.0121 106.263C43.638 105.977 43.2058 105.778 42.7461 105.677C42.2863 105.577 41.8102 105.579 41.3512 105.683C40.8923 105.786 40.4616 105.989 40.0896 106.277L33.7014 102.632L30.5394 105.974L39.6331 110.995C40.1586 111.588 40.8832 111.967 41.6698 112.062C42.4564 112.156 43.2502 111.958 43.9009 111.506C44.5515 111.054 45.0138 110.38 45.2001 109.61C45.3864 108.84 45.2838 108.028 44.9117 107.329V107.329Z" fill="#FFB8B8"/>
<path d="M35.1733 109.8L23.7237 106.203C22.1865 105.716 20.8354 104.77 19.8528 103.491C18.8702 102.213 18.3033 100.664 18.2286 99.0534L17.736 87.9285C17.7083 87.3027 17.8071 86.6777 18.0265 86.091C18.246 85.5042 18.5815 84.9678 19.013 84.5137C19.4445 84.0596 19.9632 83.6972 20.538 83.4482C21.1128 83.1992 21.732 83.0686 22.3584 83.0644C22.9848 83.0602 23.6056 83.1824 24.1838 83.4236C24.7619 83.6649 25.2854 84.0203 25.723 84.4685C26.1606 84.9167 26.5033 85.4486 26.7306 86.0324C26.9579 86.6161 27.0651 87.2397 27.0459 87.8659L26.7309 98.1013L38.9167 103.071C39.1318 103.159 39.3244 103.294 39.4801 103.466C39.6357 103.639 39.7505 103.844 39.8157 104.067C39.881 104.29 39.8951 104.525 39.857 104.755C39.8189 104.984 39.7295 105.201 39.5956 105.391L36.8987 109.216C36.7104 109.484 36.4417 109.685 36.1315 109.79C35.8212 109.895 35.4856 109.898 35.1733 109.8H35.1733Z" fill="#2F2E41"/>
<path d="M7.37357 78.2289C7.75879 75.9185 7.74464 73.5239 7.73089 71.208C7.7272 70.5793 7.72343 69.9508 7.72729 69.3235C7.74522 66.4081 7.92614 63.3181 9.11802 60.4734C10.4152 57.3775 12.8174 55.1419 15.5439 54.4933C18.6179 53.7613 21.9534 55.3796 22.9575 58.0443C23.6213 57.6693 24.3601 57.4464 25.1205 57.3916C25.8809 57.3368 26.644 57.4515 27.3547 57.7274C28.0654 58.0032 28.7061 58.4334 29.2304 58.9869C29.7547 59.5404 30.1496 60.2033 30.3866 60.9279C30.6236 61.6525 30.6968 62.4207 30.6009 63.177C30.5051 63.9334 30.2425 64.659 29.8322 65.3015C29.4219 65.9441 28.8741 66.4876 28.2283 66.8927C27.5825 67.2979 26.8548 67.5547 26.0978 67.6445L25.969 67.6559L24.9645 65.0454C24.9588 65.0911 24.9533 65.1374 24.9478 65.184C24.8838 65.7253 24.8177 66.2849 24.3708 66.6082C23.8129 67.0118 23.118 68.34 23.3211 69.6857C23.4476 70.3742 23.6363 71.0499 23.8847 71.7044C24.1607 72.423 24.3612 73.1684 24.4827 73.9285C24.6104 74.9029 24.3554 75.8888 23.7714 76.6791C23.5983 76.9098 23.38 77.1027 23.1299 77.2463C22.8798 77.3898 22.603 77.4809 22.3166 77.5139L10.9937 78.6848L10.4875 74.9027L7.26672 78.8695L7.37357 78.2289Z" fill="#2F2E41"/>
<path d="M66.2459 179.719H0.343243C0.252209 179.719 0.164904 179.683 0.100533 179.618C0.0361628 179.554 0 179.467 0 179.376C0 179.285 0.0361628 179.197 0.100533 179.133C0.164904 179.069 0.252209 179.032 0.343243 179.032H66.2459C66.337 179.032 66.4243 179.069 66.4886 179.133C66.553 179.197 66.5892 179.285 66.5892 179.376C66.5892 179.467 66.553 179.554 66.4886 179.618C66.4243 179.683 66.337 179.719 66.2459 179.719Z" fill="#CCCCCC"/>
</g>
<defs>
<clipPath id="clip0">
<rect width="250" height="179.719" fill="white"/>
</clipPath>
</defs>
</svg>
